<svg width="32" height="32" viewBox="0 0 32 32" fill="none" xmlns="http://www.w3.org/2000/svg"><path d="M32 0H0V32H32V0Z" fill="white"></path><path d="M16 3C8.82 3 3 8.82 3 16C3 23.18 8.82 29 16 29C23.18 29 29 23.18 29 16C29 8.82 23.18 3 16 3ZM26.3666 16.62C26.36 16.7267 26.3533 16.8333 26.3467 16.94C26.34 17.0533 26.3266 17.16 26.3133 17.2733C26.3 17.3867 26.2866 17.5 26.2733 17.6133C26.2533 17.7333 26.24 17.8533 26.2133 17.9733C26.1933 18.1 26.1666 18.22 26.14 18.3467C26.1133 18.48 26.08 18.6067 26.0466 18.74C26.0133 18.88 25.9734 19.02 25.9333 19.1533C25.8867 19.3067 25.84 19.4533 25.7866 19.6C25.7266 19.7667 25.6667 19.9267 25.6 20.0867C25.5267 20.2667 25.4466 20.4467 25.3599 20.6267C25.2599 20.84 25.1466 21.0467 25.0333 21.2533C24.8733 21.5333 24.7066 21.8 24.5266 22.06C23.8199 23.08 22.9333 23.9667 21.9133 24.68C21.6533 24.86 21.3799 25.0333 21.1066 25.1867C20.8999 25.3 20.6933 25.4133 20.48 25.5133C20.3 25.6 20.1199 25.68 19.9399 25.7533C19.7799 25.82 19.62 25.88 19.4533 25.94C19.3066 25.9933 19.16 26.04 19.0067 26.0867C18.8667 26.1267 18.7333 26.1667 18.5933 26.2067C18.46 26.24 18.3333 26.2733 18.2 26.3C18.0733 26.3267 17.9533 26.3533 17.8267 26.3733C17.7067 26.3933 17.5866 26.4133 17.4666 26.4333C17.3533 26.4467 17.24 26.4667 17.1266 26.4733C17.02 26.4867 16.9066 26.4933 16.7933 26.5067C16.6866 26.5133 16.58 26.52 16.4733 26.5267C16.3733 26.5333 16.2667 26.5333 16.1667 26.5333C16.1067 26.5333 16.0467 26.5333 15.9867 26.5333C15.9467 26.5333 15.9066 26.5333 15.8666 26.5333C15.7666 26.5333 15.6733 26.5267 15.5733 26.5267C15.48 26.52 15.38 26.52 15.2866 26.5133C15.1933 26.5067 15.1 26.5 15.0067 26.4933C14.9133 26.4867 14.8267 26.4733 14.7333 26.4667C14.6467 26.4533 14.5533 26.4467 14.4666 26.4333C14.38 26.42 14.2933 26.4067 14.2066 26.3933C14.12 26.38 14.04 26.3667 13.9533 26.3467C13.8733 26.3333 13.7866 26.3133 13.7066 26.2933C13.6266 26.2733 13.5466 26.2533 13.4666 26.2333C13.3866 26.2133 13.3066 26.1933 13.2266 26.1733C13.1466 26.1533 13.0733 26.1267 12.9933 26.1067C12.92 26.0867 12.84 26.06 12.7667 26.0333C12.6933 26.0067 12.62 25.9867 12.54 25.96C12.4666 25.9333 12.3933 25.9067 12.32 25.88C12.2467 25.8533 12.1733 25.8267 12.1066 25.7933C12.0333 25.7667 11.9666 25.7333 11.8933 25.7067C11.8266 25.68 11.7534 25.6467 11.6867 25.6133C11.62 25.58 11.5533 25.5533 11.48 25.52C11.4133 25.4867 11.3466 25.4533 11.2799 25.42C11.2133 25.3867 11.1467 25.3533 11.08 25.32C11.0133 25.2867 10.9533 25.2467 10.8866 25.2133C10.82 25.18 10.7599 25.14 10.6933 25.1067C10.6333 25.0667 10.5667 25.0333 10.5067 24.9933C10.4467 24.9533 10.3867 24.9133 10.32 24.88C10.26 24.84 10.2 24.8 10.14 24.76C10.08 24.72 10.02 24.68 9.95996 24.64C9.89996 24.6 9.84662 24.5533 9.78662 24.5133C9.72662 24.4733 9.67328 24.4267 9.61328 24.3867C9.55995 24.34 9.49995 24.3 9.44661 24.2533C9.39328 24.2067 9.33328 24.1667 9.27995 24.12C9.22661 24.0733 9.17329 24.0267 9.11995 23.98C9.06662 23.9333 9.01329 23.8867 8.95996 23.84C8.90663 23.7933 8.85331 23.7467 8.80664 23.6933C8.75331 23.64 8.69998 23.5933 8.64665 23.54C8.62665 23.5267 8.61334 23.5067 8.59334 23.4933C8.55334 23.4467 8.50663 23.4067 8.46663 23.36C8.41997 23.3067 8.36665 23.26 8.31999 23.2067C8.27332 23.1533 8.22668 23.1 8.18001 23.0467C8.13335 22.9933 8.08662 22.94 8.03996 22.8867C7.99329 22.8333 7.94666 22.78 7.90666 22.72C7.85999 22.6667 7.81994 22.6067 7.77327 22.5533C7.72661 22.5 7.68664 22.44 7.63997 22.38C7.59331 22.32 7.55335 22.2667 7.51335 22.2067C7.47335 22.1467 7.4333 22.0867 7.38664 22.0333C7.34664 21.9733 7.30668 21.9133 7.26668 21.8533C7.22668 21.7933 7.18665 21.7333 7.14665 21.6733C7.10665 21.6133 7.07328 21.5467 7.03328 21.4867C6.99328 21.4267 6.96 21.36 6.92 21.3C6.88667 21.2333 6.84665 21.1733 6.81331 21.1067C6.77998 21.04 6.74662 20.9733 6.70662 20.9133C6.67329 20.8467 6.63994 20.78 6.60661 20.7133C6.57327 20.6467 6.54001 20.58 6.51335 20.5067C6.48001 20.44 6.45334 20.3667 6.42 20.3C6.38667 20.2267 6.36 20.16 6.33333 20.0867C6.30667 20.0133 6.27333 19.9467 6.24666 19.8733C6.22 19.8 6.19333 19.7267 6.16667 19.6533C6.14 19.58 6.11334 19.5067 6.09334 19.4333C6.06668 19.36 6.04669 19.28 6.02002 19.2067C5.99335 19.1267 5.97329 19.0533 5.95329 18.9733C5.93329 18.8933 5.91331 18.8133 5.89331 18.74C5.87331 18.66 5.85333 18.58 5.83333 18.5C5.81333 18.42 5.79995 18.3333 5.77995 18.2533C5.75995 18.1667 5.74665 18.0867 5.73332 18C5.71998 17.9133 5.70661 17.8267 5.69328 17.74C5.67994 17.6533 5.66666 17.5667 5.65999 17.48C5.64666 17.3933 5.63996 17.3 5.62663 17.2133C5.61996 17.12 5.60668 17.0333 5.60002 16.94C5.59335 16.8467 5.58666 16.7533 5.58 16.66C5.57333 16.5667 5.57332 16.4667 5.57332 16.3733C5.57332 16.3067 5.57332 16.2467 5.57332 16.18C5.57332 16.1467 5.57332 16.1133 5.57332 16.08C5.57332 15.98 5.58 15.8733 5.58 15.7733C5.58666 15.6667 5.58668 15.56 5.60002 15.46C5.60668 15.3533 5.61996 15.24 5.62663 15.1333C5.63996 15.02 5.65333 14.9067 5.66667 14.7933C5.68 14.6733 5.69997 14.56 5.71997 14.44C5.73997 14.32 5.76662 14.1933 5.78662 14.0733C5.81329 13.9467 5.83996 13.8133 5.87329 13.6867C5.90662 13.5467 5.94665 13.4133 5.97998 13.28C6.01998 13.1333 6.06661 12.9867 6.11328 12.8467C6.16661 12.6867 6.22662 12.5333 6.28662 12.38C6.35329 12.2067 6.42667 12.0333 6.50667 11.86C6.60001 11.66 6.6933 11.4667 6.79997 11.2733C6.9333 11.0267 7.07331 10.7867 7.22664 10.5533C7.48664 10.1467 7.78001 9.76 8.09334 9.39333C8.44668 8.98667 8.83333 8.6 9.24666 8.25333C9.61333 7.94 10.0067 7.65333 10.4133 7.4C10.6467 7.25333 10.8866 7.11333 11.1333 6.98C11.3266 6.88 11.5266 6.78 11.7266 6.69333C11.9 6.62 12.0667 6.54667 12.2467 6.48C12.4 6.42 12.56 6.36667 12.7133 6.31333C12.86 6.26667 13 6.22 13.1466 6.18C13.28 6.14 13.42 6.10667 13.5533 6.07333C13.68 6.04 13.8066 6.01333 13.9399 5.98667C14.0599 5.96 14.1866 5.94 14.3066 5.92C14.42 5.9 14.54 5.88667 14.66 5.86667C14.7733 5.85333 14.8867 5.84 15 5.83333C15.1067 5.82 15.22 5.81333 15.3267 5.80667C15.4333 5.8 15.5333 5.79333 15.64 5.79333C15.74 5.79333 15.8466 5.78667 15.9466 5.78667C15.9533 5.78667 15.96 5.78667 15.9666 5.78667C16.06 5.78667 16.1533 5.78667 16.2467 5.79333C16.34 5.79333 16.44 5.8 16.5333 5.80667C16.6266 5.81333 16.72 5.82 16.8133 5.82667C16.9066 5.83333 17 5.84 17.0867 5.85333C17.1733 5.86 17.2667 5.87333 17.3534 5.88667C17.44 5.9 17.5266 5.91333 17.6133 5.92667C17.6999 5.94 17.7866 5.95333 17.8666 5.97333C17.9533 5.98667 18.0333 6.00667 18.12 6.02C18.2 6.04 18.2866 6.05333 18.3666 6.07333C18.4466 6.09333 18.5266 6.11333 18.6066 6.13333C18.6866 6.15333 18.7667 6.17333 18.84 6.2C18.92 6.22 18.9933 6.24667 19.0733 6.26667C19.1467 6.29333 19.2266 6.31333 19.3 6.34C19.3733 6.36667 19.4467 6.39333 19.52 6.42C19.5934 6.44667 19.6667 6.47333 19.74 6.5C19.8133 6.52667 19.88 6.56 19.9533 6.58667C20.0266 6.61333 20.0933 6.64667 20.16 6.68C20.2267 6.71333 20.3 6.74 20.3666 6.77333C20.4333 6.80667 20.5 6.84 20.5667 6.87333C20.6333 6.90667 20.7 6.94 20.7667 6.97333C20.8333 7.00667 20.9 7.04 20.96 7.08C21.0266 7.11333 21.0867 7.15333 21.1533 7.18667C21.2133 7.22 21.28 7.26 21.34 7.3C21.4 7.34 21.4666 7.37333 21.5266 7.41333C21.5866 7.45333 21.6466 7.49333 21.7066 7.53333C21.7666 7.57333 21.8266 7.61333 21.8866 7.65333C21.9466 7.69333 22.0066 7.73333 22.06 7.78C22.12 7.82 22.1733 7.86667 22.2333 7.90667C22.2933 7.94667 22.3467 7.99333 22.4 8.04C22.4533 8.08667 22.5133 8.12667 22.5667 8.17333C22.62 8.22 22.6733 8.26667 22.7266 8.31333C22.78 8.36 22.8333 8.40667 22.8866 8.45333C22.94 8.5 22.9933 8.54667 23.04 8.59333C23.0933 8.64 23.1399 8.69333 23.1933 8.74C23.2266 8.77333 23.2666 8.81333 23.3 8.84667C23.3066 8.85333 23.3133 8.86 23.3267 8.87333C23.38 8.92667 23.4266 8.97333 23.48 9.02667C23.5266 9.08 23.58 9.12667 23.6266 9.18C23.6733 9.23333 23.72 9.28667 23.7667 9.34C23.8134 9.39333 23.86 9.44667 23.9067 9.5C23.9533 9.55333 24 9.60667 24.04 9.66667C24.0866 9.72 24.1267 9.78 24.1733 9.83333C24.22 9.88667 24.26 9.94667 24.3 10.0067C24.34 10.0667 24.3867 10.12 24.4267 10.18C24.4667 10.24 24.5066 10.3 24.5466 10.36C24.5866 10.42 24.6267 10.48 24.6667 10.54C24.7067 10.6 24.7466 10.66 24.7866 10.72C24.8266 10.78 24.86 10.8467 24.9 10.9067C24.94 10.9667 24.9733 11.0333 25.0067 11.1C25.04 11.1667 25.0799 11.2267 25.1133 11.2933C25.1466 11.36 25.18 11.4267 25.2133 11.4933C25.2466 11.56 25.28 11.6267 25.3133 11.6933C25.3466 11.76 25.38 11.8267 25.4067 11.9C25.44 11.9667 25.4667 12.04 25.5 12.1067C25.5333 12.18 25.56 12.2467 25.5867 12.32C25.6133 12.3933 25.6467 12.4667 25.6733 12.5333C25.7 12.6067 25.7267 12.68 25.7533 12.7533C25.78 12.8267 25.8067 12.9 25.8267 12.98C25.8533 13.0533 25.8733 13.1333 25.9 13.2067C25.9267 13.2867 25.9466 13.36 25.9666 13.44C25.9866 13.52 26.0066 13.6 26.0266 13.68C26.0466 13.76 26.0667 13.84 26.0867 13.92C26.1067 14 26.12 14.0867 26.14 14.1667C26.16 14.2533 26.1734 14.3333 26.1867 14.42C26.2 14.5067 26.2133 14.5933 26.2266 14.68C26.24 14.7667 26.2533 14.8533 26.26 14.9467C26.2733 15.0333 26.28 15.1267 26.2866 15.22C26.2933 15.3133 26.3 15.4067 26.3066 15.5C26.3133 15.5933 26.32 15.6867 26.32 15.7867C26.3267 15.8867 26.3267 15.98 26.3267 16.08C26.3267 16.1267 26.3267 16.1667 26.3267 16.2133C26.3267 16.2667 26.3267 16.3267 26.3267 16.38C26.3733 16.4133 26.3666 16.52 26.3666 16.62Z" fill="#02DA53"></path><path d="M26.3732 16.0133C26.3732 15.9133 26.3665 15.82 26.3665 15.72C26.3599 15.6266 26.3599 15.5266 26.3533 15.4333C26.3466 15.34 26.3399 15.2466 26.3333 15.1533C26.3266 15.06 26.3132 14.9733 26.3066 14.88C26.2932 14.7933 26.2865 14.7066 26.2732 14.6133C26.2599 14.5266 26.2466 14.44 26.2332 14.3533C26.2199 14.2666 26.1999 14.1866 26.1866 14.1C26.1733 14.02 26.1532 13.9333 26.1332 13.8533C26.1132 13.7733 26.0932 13.6933 26.0732 13.6133C26.0532 13.5333 26.0333 13.4533 26.0133 13.3733C25.9933 13.2933 25.9665 13.22 25.9465 13.14C25.9265 13.0666 25.8999 12.9866 25.8732 12.9133C25.8465 12.84 25.8266 12.7666 25.7999 12.6866C25.7732 12.6133 25.7466 12.54 25.7199 12.4666C25.6932 12.3933 25.6666 12.32 25.6332 12.2533C25.6066 12.18 25.5732 12.1133 25.5466 12.04C25.5132 11.9733 25.4865 11.9 25.4532 11.8333C25.4199 11.7666 25.3932 11.7 25.3599 11.6266C25.3265 11.56 25.2933 11.4933 25.2599 11.4266C25.2266 11.36 25.1932 11.2933 25.1599 11.2266C25.1266 11.16 25.0866 11.1 25.0532 11.0333C25.0199 10.9666 24.9799 10.9066 24.9465 10.84C24.9065 10.78 24.8733 10.7133 24.8333 10.6533C24.7933 10.5933 24.7532 10.5333 24.7132 10.4733C24.6732 10.4133 24.6333 10.3533 24.5933 10.2933C24.5533 10.2333 24.5132 10.1733 24.4732 10.1133C24.4332 10.0533 24.3866 9.99997 24.3466 9.93997C24.3066 9.87997 24.2599 9.82664 24.2199 9.76664C24.1732 9.7133 24.1333 9.6533 24.0866 9.59997C24.0399 9.54664 23.9932 9.48664 23.9532 9.4333C23.9132 9.37997 23.8599 9.32664 23.8132 9.2733C23.7666 9.21997 23.7199 9.16664 23.6733 9.1133C23.6266 9.05997 23.5799 9.00664 23.5265 8.95997C23.4799 8.90664 23.4265 8.8533 23.3732 8.80664C23.3665 8.79997 23.3599 8.7933 23.3466 8.77997C23.3133 8.74664 23.2732 8.70664 23.2399 8.6733C23.1866 8.62664 23.1399 8.5733 23.0866 8.52664C23.0333 8.47997 22.9799 8.4333 22.9333 8.38664C22.8799 8.33997 22.8265 8.2933 22.7732 8.24664C22.7199 8.19997 22.6665 8.1533 22.6132 8.10664C22.5599 8.05997 22.4999 8.01997 22.4465 7.9733C22.3932 7.92664 22.3332 7.88664 22.2799 7.83997C22.2199 7.79997 22.1665 7.7533 22.1065 7.7133C22.0465 7.6733 21.9933 7.62664 21.9333 7.58664C21.8733 7.54664 21.8133 7.50664 21.7533 7.46664C21.6933 7.42664 21.6332 7.38664 21.5732 7.34664C21.5132 7.30664 21.4532 7.26664 21.3866 7.2333C21.3266 7.1933 21.2599 7.15997 21.1999 7.11997C21.1332 7.08664 21.0733 7.04664 21.0066 7.0133C20.9399 6.97997 20.8799 6.93997 20.8132 6.90664C20.7466 6.8733 20.6799 6.83997 20.6132 6.80664C20.5465 6.7733 20.4799 6.73997 20.4132 6.70664C20.3466 6.6733 20.2732 6.64664 20.2065 6.6133C20.1399 6.57997 20.0666 6.5533 19.9999 6.51997C19.9266 6.4933 19.8599 6.45997 19.7865 6.4333C19.7132 6.40664 19.6399 6.37997 19.5666 6.3533C19.4932 6.32664 19.4199 6.29997 19.3466 6.2733C19.2733 6.24664 19.1932 6.22664 19.1199 6.19997C19.0465 6.1733 18.9666 6.1533 18.8866 6.1333C18.8066 6.1133 18.7332 6.08664 18.6532 6.06664C18.5732 6.04664 18.4932 6.02664 18.4132 6.00664C18.3332 5.98664 18.2533 5.96664 18.1666 5.9533C18.0866 5.9333 17.9999 5.91997 17.9132 5.90664C17.8266 5.8933 17.7399 5.8733 17.6599 5.85997C17.5732 5.84664 17.4866 5.8333 17.3999 5.81997C17.3132 5.80664 17.2199 5.79997 17.1332 5.78664C17.0399 5.77997 16.9532 5.76664 16.8599 5.75997C16.7665 5.7533 16.6732 5.74664 16.5799 5.73997C16.4866 5.7333 16.3865 5.7333 16.2932 5.72664C16.1999 5.72664 16.1066 5.71997 16.0133 5.71997C16.0066 5.71997 15.9999 5.71997 15.9932 5.71997C15.8932 5.71997 15.7866 5.71997 15.6866 5.72664C15.5799 5.72664 15.4732 5.7333 15.3732 5.73997C15.2665 5.74664 15.1532 5.7533 15.0465 5.76664C14.9332 5.77997 14.8199 5.78664 14.7065 5.79997C14.5865 5.8133 14.4733 5.8333 14.3533 5.8533C14.2333 5.8733 14.1066 5.8933 13.9866 5.91997C13.8599 5.94664 13.7266 5.9733 13.5999 6.00664C13.4599 6.03997 13.3265 6.0733 13.1932 6.1133C13.0465 6.1533 12.8999 6.19997 12.7599 6.24664C12.5999 6.29997 12.4465 6.3533 12.2932 6.4133C12.1199 6.47997 11.9465 6.5533 11.7732 6.62664C11.5732 6.7133 11.3733 6.8133 11.1799 6.9133C10.9333 7.03997 10.6932 7.17997 10.4599 7.3333C10.0532 7.5933 9.65988 7.87997 9.29321 8.18664C8.87988 8.53997 8.49323 8.91997 8.13989 9.32664C7.82656 9.6933 7.53319 10.08 7.27319 10.4866C7.11986 10.72 6.97993 10.96 6.8466 11.2066C6.73993 11.4 6.64656 11.5933 6.55322 11.7933C6.47322 11.9666 6.39992 12.1333 6.33325 12.3133C6.27325 12.4666 6.21325 12.6266 6.15991 12.78C6.11325 12.92 6.06653 13.0666 6.02653 13.2133C5.98653 13.3466 5.95326 13.4866 5.91992 13.62C5.88659 13.7466 5.85992 13.8733 5.83325 14.0066C5.80659 14.1266 5.7866 14.2533 5.7666 14.3733C5.7466 14.4866 5.72655 14.6066 5.71322 14.7266C5.69988 14.84 5.68659 14.9533 5.67326 15.0666C5.65993 15.1733 5.65323 15.2866 5.64657 15.3933C5.6399 15.5 5.63321 15.6066 5.62655 15.7066C5.61988 15.8066 5.61987 15.9133 5.61987 16.0133C5.61987 16.0466 5.61987 16.08 5.61987 16.1133C5.61987 16.18 5.61987 16.24 5.61987 16.3066C5.61987 16.4066 5.62655 16.5 5.62655 16.5933C5.63321 16.6866 5.63323 16.78 5.64657 16.8733C5.65323 16.9666 5.65993 17.06 5.67326 17.1466C5.67993 17.2333 5.69321 17.3266 5.70654 17.4133C5.71988 17.5 5.73324 17.5866 5.73991 17.6733C5.75324 17.76 5.76653 17.8466 5.77987 17.9333C5.7932 18.02 5.81325 18.1 5.82658 18.1866C5.84658 18.2666 5.85988 18.3533 5.87988 18.4333C5.89988 18.5133 5.91986 18.5933 5.93986 18.6733C5.95986 18.7533 5.97992 18.8333 5.99992 18.9066C6.01992 18.9866 6.04657 19.06 6.06657 19.14C6.09324 19.2133 6.11323 19.2933 6.13989 19.3666C6.16656 19.44 6.19322 19.5133 6.21322 19.5866C6.23988 19.66 6.26655 19.7333 6.29321 19.8066C6.31988 19.88 6.34655 19.9533 6.37988 20.02C6.40655 20.0933 6.43989 20.16 6.46655 20.2333C6.49989 20.3 6.52656 20.3733 6.5599 20.44C6.59323 20.5066 6.62657 20.5733 6.65324 20.6466C6.68657 20.7133 6.71992 20.78 6.75326 20.8466C6.78659 20.9133 6.81986 20.98 6.85986 21.04C6.8932 21.1066 6.93322 21.1666 6.96655 21.2333C6.99989 21.3 7.03992 21.36 7.07992 21.42C7.11992 21.48 7.1532 21.5466 7.1932 21.6066C7.2332 21.6666 7.27323 21.7266 7.31323 21.7866C7.35323 21.8466 7.39327 21.9066 7.43327 21.9666C7.47327 22.0266 7.51323 22.0866 7.5599 22.14C7.5999 22.2 7.6466 22.2533 7.6866 22.3133C7.7266 22.3733 7.77324 22.4266 7.81991 22.48C7.86657 22.5333 7.90654 22.5933 7.95321 22.6466C7.99987 22.7 8.04659 22.7533 8.08659 22.8133C8.13326 22.8666 8.1799 22.92 8.22656 22.9733C8.27323 23.0266 8.31987 23.08 8.36654 23.1333C8.4132 23.1866 8.45993 23.24 8.51327 23.2866C8.55327 23.3333 8.59989 23.3733 8.63989 23.42C8.65989 23.44 8.6732 23.4533 8.6932 23.4666C8.74653 23.52 8.79994 23.5733 8.85327 23.62C8.90661 23.6666 8.95326 23.72 9.00659 23.7666C9.05993 23.8133 9.11325 23.86 9.16659 23.9066C9.21992 23.9533 9.27325 24 9.32658 24.0466C9.37991 24.0933 9.43325 24.14 9.49325 24.18C9.54658 24.2266 9.60658 24.2666 9.65991 24.3133C9.71325 24.36 9.77325 24.4 9.83325 24.44C9.89325 24.48 9.94659 24.5266 10.0066 24.5666C10.0666 24.6066 10.1266 24.6466 10.1866 24.6866C10.2466 24.7266 10.3065 24.7666 10.3665 24.8066C10.4265 24.8466 10.4866 24.8866 10.5532 24.92C10.6132 24.96 10.6799 24.9933 10.7399 25.0333C10.7999 25.0733 10.8666 25.1066 10.9333 25.14C10.9999 25.1733 11.0599 25.2133 11.1265 25.2466C11.1932 25.28 11.2599 25.3133 11.3266 25.3466C11.3932 25.38 11.4599 25.4133 11.5265 25.4466C11.5932 25.48 11.6599 25.5133 11.7332 25.54C11.7999 25.5733 11.8732 25.6 11.9399 25.6333C12.0132 25.66 12.0799 25.6933 12.1532 25.72C12.2266 25.7466 12.2999 25.78 12.3665 25.8066C12.4399 25.8333 12.5133 25.86 12.5866 25.8866C12.6599 25.9133 12.7332 25.94 12.8132 25.96C12.8866 25.9866 12.9665 26.0066 13.0399 26.0333C13.1199 26.0533 13.1932 26.08 13.2732 26.1C13.3532 26.12 13.4333 26.14 13.5133 26.16C13.5933 26.18 13.6733 26.2 13.7533 26.22C13.8333 26.24 13.9199 26.2533 13.9999 26.2733C14.0866 26.2866 14.1666 26.3066 14.2533 26.32C14.3399 26.3333 14.4266 26.3466 14.5133 26.36C14.5999 26.3733 14.6865 26.3866 14.7799 26.3933C14.8665 26.4066 14.9599 26.4133 15.0532 26.42C15.1466 26.4266 15.2399 26.4333 15.3333 26.44C15.4266 26.4466 15.5199 26.4533 15.6199 26.4533C15.7199 26.46 15.8132 26.46 15.9132 26.46C15.9532 26.46 15.9932 26.46 16.0332 26.46C16.0932 26.46 16.1532 26.46 16.2132 26.46C16.3199 26.46 16.4199 26.4533 16.5199 26.4533C16.6266 26.4466 16.7333 26.44 16.8399 26.4333C16.9533 26.4266 17.0599 26.4133 17.1733 26.4C17.2866 26.3866 17.3999 26.3733 17.5133 26.36C17.6333 26.34 17.7532 26.3266 17.8732 26.3C17.9999 26.28 18.1199 26.2533 18.2466 26.2266C18.3799 26.2 18.5066 26.1666 18.6399 26.1333C18.7799 26.1 18.9199 26.06 19.0532 26.0133C19.2066 25.9666 19.3533 25.92 19.4999 25.8666C19.6666 25.8066 19.8266 25.7466 19.9866 25.68C20.1666 25.6066 20.3465 25.5266 20.5265 25.44C20.7399 25.34 20.9466 25.2266 21.1532 25.1133C21.4332 24.9533 21.6999 24.7866 21.9599 24.6066C22.9799 23.9 23.8666 23.0133 24.5732 21.9866C24.7532 21.7266 24.9266 21.4533 25.0799 21.18C25.1932 20.9733 25.3066 20.7666 25.4066 20.5533C25.4932 20.3733 25.5732 20.1933 25.6466 20.0133C25.7132 19.8533 25.7733 19.6933 25.8333 19.5266C25.8866 19.38 25.9332 19.2333 25.9799 19.08C26.0199 18.94 26.0599 18.8066 26.0933 18.6666C26.1266 18.5333 26.1599 18.4066 26.1866 18.2733C26.2133 18.1466 26.2399 18.0266 26.2599 17.9C26.2799 17.78 26.2999 17.66 26.3199 17.54C26.3332 17.4266 26.3532 17.3133 26.3599 17.2C26.3732 17.0933 26.3799 16.98 26.3932 16.8666C26.3999 16.76 26.4066 16.6533 26.4132 16.5466C26.4199 16.4466 26.4199 16.34 26.4199 16.24C26.4199 16.1866 26.4199 16.1266 26.4199 16.0733C26.3733 16.1 26.3732 16.0533 26.3732 16.0133ZM16.0465 22.6266C12.4665 22.6266 9.56657 19.7266 9.56657 16.1466C9.56657 12.5666 12.4665 9.66664 16.0465 9.66664C19.6265 9.66664 22.5265 12.5666 22.5265 16.1466C22.5332 19.7266 19.6265 22.6266 16.0465 22.6266Z" fill="#05FF84"></path><path d="M16.0466 9.65991C12.4666 9.65991 9.56665 12.5599 9.56665 16.1399C9.56665 19.7199 12.4666 22.6199 16.0466 22.6199C19.6266 22.6199 22.5266 19.7199 22.5266 16.1399C22.5333 12.5666 19.6266 9.65991 16.0466 9.65991Z" fill="white"></path></svg>