<svg width="48" height="48" viewBox="0 0 48 48" fill="none" xmlns="http://www.w3.org/2000/svg"><path d="M48 0H0V48H48V0Z" fill="white"></path><path d="M9.03 41.78H33.03V17.78H7.25V40C7.25 40.98 8.05 41.78 9.03 41.78Z" fill="url(#gift0_linear)"></path><path d="M27.6904 17.78V40C27.6904 40.98 28.4904 41.78 29.4704 41.78H39.2504C40.2304 41.78 41.0304 40.98 41.0304 40V17.78H27.6904Z" fill="#A3DEFF"></path><path d="M46.3605 25.78H32.9405L27.5205 17.78H40.9405L46.3605 25.78Z" fill="url(#gift1_linear)"></path><path d="M1.65039 25.78H22.5404L27.9604 17.78H7.0704L1.65039 25.78Z" fill="url(#gift2_linear)"></path><path d="M24.5005 13.09C24.3305 13.28 23.9805 13.28 23.7205 13.09L19.1105 8.16996C17.8105 6.77996 17.8105 4.54996 19.2005 3.14996C20.5105 1.84996 22.5905 1.93996 23.8105 3.33996L24.1605 3.70996L24.5105 3.33996C25.7305 2.03996 27.8205 1.84996 29.1205 3.14996C30.4305 4.53996 30.5105 6.76996 29.2105 8.16996L24.5005 13.09Z" fill="url(#gift3_linear)"></path><defs><linearGradient id="gift0_linear" x1="20.137" y1="17.7822" x2="20.137" y2="41.7822" gradientUnits="userSpaceOnUse"><stop stop-color="#007BD1"></stop><stop offset="1" stop-color="#19AAF8"></stop></linearGradient><linearGradient id="gift1_linear" x1="36.937" y1="17.7822" x2="36.937" y2="25.7822" gradientUnits="userSpaceOnUse"><stop stop-color="#00F7FF"></stop><stop offset="1" stop-color="#2BA6FA"></stop></linearGradient><linearGradient id="gift2_linear" x1="14.8039" y1="17.7822" x2="14.8039" y2="25.7822" gradientUnits="userSpaceOnUse"><stop stop-color="#00F7FF"></stop><stop offset="1" stop-color="#2BA6FA"></stop></linearGradient><linearGradient id="gift3_linear" x1="24.1374" y1="2.22586" x2="24.1374" y2="13.226" gradientUnits="userSpaceOnUse"><stop offset="0.0568" stop-color="#E9404E"></stop><stop offset="1" stop-color="#FF7A50"></stop></linearGradient></defs></svg>