<svg width="48" height="48" viewBox="0 0 48 48" fill="none" xmlns="http://www.w3.org/2000/svg"><path d="M48 0H0V48H48V0Z" fill="white"></path><path d="M12.2898 21.37C16.8186 21.37 20.4898 17.6987 20.4898 13.17C20.4898 8.64124 16.8186 4.96997 12.2898 4.96997C7.76111 4.96997 4.08984 8.64124 4.08984 13.17C4.08984 17.6987 7.76111 21.37 12.2898 21.37Z" fill="url(#flexiplan0_linear)"></path><path d="M35.7098 21.37C40.2385 21.37 43.9098 17.6987 43.9098 13.17C43.9098 8.64124 40.2385 4.96997 35.7098 4.96997C31.181 4.96997 27.5098 8.64124 27.5098 13.17C27.5098 17.6987 31.181 21.37 35.7098 21.37Z" fill="url(#flexiplan1_linear)"></path><path d="M35.7098 43.0299C40.2385 43.0299 43.9098 39.3586 43.9098 34.8299C43.9098 30.3011 40.2385 26.6299 35.7098 26.6299C31.181 26.6299 27.5098 30.3011 27.5098 34.8299C27.5098 39.3586 31.181 43.0299 35.7098 43.0299Z" fill="url(#flexiplan2_linear)"></path><path d="M12.2898 43.0299C16.8186 43.0299 20.4898 39.3586 20.4898 34.8299C20.4898 30.3011 16.8186 26.6299 12.2898 26.6299C7.76111 26.6299 4.08984 30.3011 4.08984 34.8299C4.08984 39.3586 7.76111 43.0299 12.2898 43.0299Z" fill="url(#flexiplan3_linear)"></path><defs><linearGradient id="flexiplan0_linear" x1="12.2928" y1="4.97937" x2="12.2928" y2="21.3697" gradientUnits="userSpaceOnUse"><stop stop-color="#007BD1"></stop><stop offset="1" stop-color="#19AAF8"></stop></linearGradient><linearGradient id="flexiplan1_linear" x1="35.7068" y1="4.97937" x2="35.7068" y2="21.3697" gradientUnits="userSpaceOnUse"><stop stop-color="#1ABE51"></stop><stop offset="1" stop-color="#74D528"></stop></linearGradient><linearGradient id="flexiplan2_linear" x1="35.7068" y1="26.6384" x2="35.7068" y2="43.0286" gradientUnits="userSpaceOnUse"><stop offset="0.0568" stop-color="#E9404E"></stop><stop offset="1" stop-color="#FF7A50"></stop></linearGradient><linearGradient id="flexiplan3_linear" x1="12.2928" y1="26.6384" x2="12.2928" y2="43.0286" gradientUnits="userSpaceOnUse"><stop stop-color="#F5AF47"></stop><stop offset="1" stop-color="#FFC960"></stop></linearGradient></defs></svg>