<svg width="48" height="48" viewBox="0 0 48 48" fill="none" xmlns="http://www.w3.org/2000/svg"><g clip-path="url(#clip0_14384_2844)"><path d="M17.1 34.2C17.1 34.2 20.7 33.4 23.9 31.6C23.9 31.6 37.9 35.3 46 28.1V33.6C46 33.6 46.1 35.3 43.8 36.9C41.6 38.5 33.8 41.8 23.6 39C23.6 39 18.2 37.6 17.1 34.2Z" fill="url(#paint0_linear_14384_2844)"></path><path d="M26.1 30.4001C36.9 23.5001 34.1 18.2001 34.1 18.2001C40.9 18.7001 46 21.3001 46 24.5001C46 27.9001 39.6 30.9001 31.2 30.9001C29.4 30.9001 27.7 30.7001 26.1 30.4001Z" fill="url(#paint1_linear_14384_2844)"></path><path d="M3.79999 25.9001L6.09999 30.9001C6.09999 30.9001 7.59999 34.4001 15.9 32.7001C24.2 31.0001 31 25.4001 32.5 21.1001C32.5 21.1001 33 19.8001 32.4 18.7001L30.1 13.7001C30.1 13.7001 28.3 19.1001 20.1 23.2001C20.1 23.2001 11.6 28.3001 3.79999 25.9001Z" fill="url(#paint2_linear_14384_2844)"></path><path d="M28.6 10.3C30.1 13.5 25.4 18.8 18.2 22.2C11 25.6 3.79998 25.7 2.29998 22.5C0.799984 19.4 5.49998 14 12.7 10.6C20 7.30001 27.1 7.10001 28.6 10.3Z" fill="url(#paint3_linear_14384_2844)"></path></g><defs><linearGradient id="paint0_linear_14384_2844" x1="17.0593" y1="34.1182" x2="46" y2="34.1182" gradientUnits="userSpaceOnUse"><stop offset="0.1235" stop-color="#F7B246"></stop><stop offset="0.9507" stop-color="#FFC962"></stop></linearGradient><linearGradient id="paint1_linear_14384_2844" x1="26.1328" y1="24.5012" x2="45.9999" y2="24.5012" gradientUnits="userSpaceOnUse"><stop offset="0.1235" stop-color="#F7B246"></stop><stop offset="0.9507" stop-color="#FFC962"></stop></linearGradient><linearGradient id="paint2_linear_14384_2844" x1="3.80579" y1="23.4506" x2="32.7082" y2="23.4506" gradientUnits="userSpaceOnUse"><stop offset="0.1235" stop-color="#F7B246"></stop><stop offset="0.9507" stop-color="#FFC962"></stop></linearGradient><linearGradient id="paint3_linear_14384_2844" x1="1.99998" y1="16.4267" x2="28.8423" y2="16.4267" gradientUnits="userSpaceOnUse"><stop offset="0.1235" stop-color="#F7B246"></stop><stop offset="0.9507" stop-color="#FFC962"></stop></linearGradient><clipPath id="clip0_14384_2844"><rect width="44" height="32.1" fill="white" transform="translate(2 8)"></rect></clipPath></defs></svg>