<svg width="48" height="48" viewBox="0 0 48 48" fill="none" xmlns="http://www.w3.org/2000/svg"><path d="M48 0H0V48H48V0Z" fill="white"></path><path d="M12.5298 6.56013L13.3197 24.4401L19.2698 20.7701L18.5298 3.88013L12.5298 6.56013Z" fill="#007DC5"></path><path d="M4.7699 29.68L22.0599 34.41L20.5499 27.61L3.62988 23.23L4.7699 29.68Z" fill="#007DC5"></path><path d="M41.5796 11.92L34.8196 28.27L30.3896 22.85L37.1996 7.04004L41.5796 11.92Z" fill="#00AEEF"></path><path d="M44.3601 30.3001L33.1101 16.5801L30.4102 22.8801L41.1602 36.0101L44.3601 30.3001Z" fill="#007DC5"></path><path d="M24.29 44.1401L33.36 29.2401L26.6 28.6001L17.8101 43.1101L24.29 44.1401Z" fill="#007DC5"></path><path d="M41.16 36.0101L22.98 34.5601L26.6 28.6001L44.36 30.3001L41.16 36.0101Z" fill="#00AEEF"></path><path d="M17.7797 43.1002L13.8896 25.9102L20.5497 27.6102L24.2697 44.1602L17.7797 43.1002Z" fill="#00AEEF"></path><path d="M3.62988 23.23L18.9598 13.8L19.2799 20.77L4.75989 29.69L3.62988 23.23Z" fill="#00AEEF"></path><path d="M37.1997 7.05005L20.2798 13.18L25.6097 17.74L41.5897 11.93L37.1997 7.05005Z" fill="#007DC5"></path><path d="M18.5701 3.8501L32.1501 15.3501L25.5602 17.7401L12.5801 6.5601L18.5701 3.8501Z" fill="#00AEEF"></path></svg>