<svg width="48" height="48" viewBox="0 0 48 48" fill="none" xmlns="http://www.w3.org/2000/svg"><path d="M48 0H0V48H48V0Z" fill="white"></path><path d="M24.0001 44.4501C35.2901 44.4501 44.45 35.3001 44.45 24.0101C44.45 12.7201 35.2901 3.56006 24.0001 3.56006C12.7101 3.56006 3.56006 12.7101 3.56006 24.0001C3.56006 35.2901 12.7101 44.4501 24.0001 44.4501Z" fill="url(#world0_linear)"></path><path d="M41.96 14.2301H33.6C32.44 9.38006 30.4 5.72006 27.81 3.92006C26.58 3.69006 25.3 3.56006 24 3.56006C22.7 3.56006 21.43 3.69006 20.19 3.92006C17.6 5.72006 15.56 9.38006 14.4 14.2301H6.04001C5.43001 15.3601 4.92002 16.5501 4.52002 17.7901H13.74C13.47 19.7401 13.33 21.8201 13.33 24.0101C13.33 26.2001 13.47 28.2801 13.74 30.2301H4.52002C4.92002 31.4701 5.42001 32.6601 6.04001 33.7901H14.4C15.56 38.6401 17.6 42.3001 20.19 44.1001C21.42 44.3301 22.7 44.4601 24 44.4601C25.3 44.4601 26.57 44.3301 27.81 44.1001C30.4 42.3001 32.44 38.6401 33.6 33.7901H41.96C42.57 32.6601 43.08 31.4701 43.48 30.2301H34.26C34.53 28.2801 34.67 26.2001 34.67 24.0101C34.67 21.8201 34.53 19.7401 34.26 17.7901H43.48C43.08 16.5401 42.57 15.3501 41.96 14.2301ZM24 6.23006C26.22 6.23006 28.54 9.24006 29.9 14.2301H18.09C19.46 9.23006 21.78 6.23006 24 6.23006ZM24 41.7801C21.78 41.7801 19.46 38.7701 18.1 33.7801H29.91C28.54 38.7801 26.22 41.7801 24 41.7801ZM30.65 30.2301H17.35C17.06 28.3301 16.89 26.2501 16.89 24.0101C16.89 21.7701 17.06 19.6901 17.35 17.7901H30.65C30.94 19.6901 31.11 21.7701 31.11 24.0101C31.11 26.2501 30.94 28.3301 30.65 30.2301Z" fill="#A3DEFF"></path><defs><linearGradient id="world0_linear" x1="24.0015" y1="3.56016" x2="24.0015" y2="44.4482" gradientUnits="userSpaceOnUse"><stop stop-color="#007BD1"></stop><stop offset="1" stop-color="#19AAF8"></stop></linearGradient></defs></svg>