<svg width="48" height="48" viewBox="0 0 48 48" fill="none" xmlns="http://www.w3.org/2000/svg"><path d="M23.7014 2C14.9049 2.01052 7.78288 9.08089 7.77228 17.8136C7.77228 18.1503 7.80407 18.4975 7.84647 18.8342V19.1604C7.84647 19.3918 7.93125 19.6338 7.99484 19.8758C8.05843 20.1178 8.04783 20.1178 8.07963 20.2441C8.11142 20.3703 8.2174 20.7281 8.31279 21.0647L8.39757 21.3067C8.51415 21.6329 8.62013 21.9591 8.78971 22.3273C8.95928 22.6955 9.09705 23.0428 9.27722 23.411L9.44679 23.7372L9.83893 24.4947L10.0509 24.8735C10.1887 25.126 10.3264 25.3785 10.4748 25.6205L10.6868 25.9677C10.867 26.2833 11.0789 26.599 11.2803 26.9146L11.3545 27.0304C11.9904 28.0509 12.7428 29.0715 13.5483 30.0921C13.5695 30.1131 13.5907 30.1447 13.6119 30.1762L16.1025 33.238L16.8655 34.1007L17.618 34.9424L22.6946 40.2242L22.7793 40.3083L22.9807 40.4977C23.1821 40.6871 23.447 40.7818 23.7226 40.7713C23.9981 40.7713 24.2737 40.6661 24.4857 40.4872C24.528 40.4346 24.581 40.3925 24.634 40.3399L25.6621 39.3193L25.7362 39.2457L30.5796 34.1428L31.3427 33.2801L31.5441 33.0381L32.0952 32.3647L33.8651 30.1657C34.7023 29.082 35.4442 28.0299 36.0483 27.104L36.1543 26.9462C36.3556 26.62 36.5676 26.3044 36.7478 25.9887L36.9491 25.6415C37.1081 25.3995 37.2459 25.147 37.3837 24.8945L37.585 24.5157C37.7334 24.2738 37.85 24.0107 37.9878 23.7582L38.0938 23.4215C38.2633 23.0638 38.4223 22.7061 38.6025 22.2852C38.772 21.8644 38.8568 21.6224 38.9734 21.2646L39.0794 20.9385C39.1642 20.686 39.2384 20.444 39.2914 20.202L39.3867 19.8337C39.4397 19.5917 39.4821 19.3498 39.5351 19.0236V18.7921C39.5775 18.4554 39.5987 18.1082 39.6093 17.7715C39.5669 9.08089 32.4661 2.03156 23.7014 2ZM26.4887 21.5908C26.2026 21.7697 25.9058 21.9275 25.5985 22.0537C25.2911 22.1695 24.9732 22.2642 24.6552 22.3168C24.0193 22.4536 23.3516 22.4536 22.7158 22.3168C22.3872 22.2536 22.0693 22.159 21.7619 22.0327C21.444 21.9064 21.1472 21.7486 20.8717 21.5592C20.2888 21.1699 19.7906 20.6649 19.3985 20.0757C19.2395 19.8232 19.0912 19.5602 18.9746 19.2761C18.9746 19.2445 18.9746 19.213 18.9746 19.1709C18.858 18.8763 18.7626 18.5606 18.7096 18.245C18.6354 17.9294 18.5931 17.6137 18.5719 17.2981C18.5719 17.0456 18.593 16.7931 18.6248 16.5405C18.6354 16.4985 18.6354 16.4564 18.6248 16.4143C18.7944 15.5094 19.2077 14.6677 19.8118 13.9733L19.9284 13.805L19.992 13.7419L20.0556 13.6682H20.1086C20.2782 13.4999 20.4583 13.342 20.6491 13.2053L20.7233 13.1527C21.5076 12.574 22.4402 12.2373 23.4046 12.1742H24.0935H24.3585H24.5916C24.687 12.1847 24.7824 12.2057 24.8778 12.2373H25.1003L25.3759 12.353L25.5879 12.4267L25.874 12.5635L26.0542 12.6582C26.1496 12.7002 26.245 12.7528 26.3297 12.816C26.3933 12.8475 26.4463 12.8791 26.4993 12.9212L26.7643 13.2368L26.9338 13.3631C27.3472 13.6998 27.7181 14.1101 28.0149 14.552C28.1844 14.8045 28.3222 15.0675 28.4388 15.3516C28.4388 15.3832 28.4388 15.4148 28.4388 15.4568C28.5554 15.7514 28.6507 16.0671 28.7037 16.3827C28.7779 16.6878 28.8203 17.0035 28.8309 17.3191C28.8309 17.6663 28.7991 18.003 28.7249 18.3397C28.6719 18.6448 28.5872 18.9289 28.4706 19.213C28.4706 19.2445 28.4706 19.2761 28.4706 19.3077C28.3328 19.6128 28.1738 19.8969 27.9937 20.1704C27.6015 20.7281 27.0822 21.212 26.4887 21.5908Z" fill="url(#paint0_linear_13553:2847)"></path><path d="M23.6802 23.4637C27.2214 23.4637 30.0921 20.6138 30.0921 17.0982C30.0921 13.5827 27.2214 10.7328 23.6802 10.7328C20.139 10.7328 17.2682 13.5827 17.2682 17.0982C17.2682 20.6138 20.139 23.4637 23.6802 23.4637Z" fill="white"></path><path d="M35.317 31.9965L33.5471 34.1428C39.8954 35.2581 43.5306 37.3203 43.5306 38.9406C43.5306 41.2868 35.9105 44.5485 23.4894 44.5485C11.0789 44.5485 3.44819 41.2763 3.44819 38.9406C3.44819 37.2782 7.29534 35.1529 13.9722 34.0481L12.2341 31.8807C5.80099 33.1223 1 35.5001 1 38.9406C1 44.2223 12.3189 46.9894 23.5 46.9894C34.6811 46.9894 46 44.2223 46 38.9406C45.9894 35.5948 41.464 33.2696 35.317 31.9965Z" fill="#A8DDF8"></path><defs><linearGradient id="paint0_linear_13553:2847" x1="22.9715" y1="1.51749" x2="24.6456" y2="40.132" gradientUnits="userSpaceOnUse"><stop stop-color="#2A7ABF"></stop><stop offset="1" stop-color="#44A4DC"></stop></linearGradient></defs></svg>