<svg width="48" height="48" viewBox="0 0 48 48" fill="none" xmlns="http://www.w3.org/2000/svg"><path d="M48 0H0V48H48V0Z" fill="white"></path><path d="M41.9502 33.27C41.8602 33.01 41.5202 32.67 41.1702 32.58C37.6602 31.72 34.1502 30.95 30.6302 30.18C30.3702 30.09 29.9501 30.35 29.7701 30.61C29.2601 31.38 28.8302 32.24 28.4902 33.1C28.2302 33.78 27.8902 33.61 27.1202 33.61C23.5202 33.61 14.3502 24.44 14.4302 20.92C14.4302 20.15 14.3502 19.89 14.9502 19.55C15.8002 19.21 16.6602 18.69 17.4302 18.26C17.6902 18.09 17.8602 17.66 17.8602 17.4C17.0902 13.89 16.3201 10.37 15.4601 6.86003C15.3701 6.60003 15.1201 6.17003 14.7701 6.09003C10.8301 5.40003 5.9502 7.80003 5.9502 16.03C5.9502 25.97 19.8302 42 31.9202 42C40.2302 42.1 42.6302 37.22 41.9502 33.27Z" fill="url(#phone0_linear)"></path><path d="M32.5201 16.43C32.1401 16.43 31.7501 16.28 31.4601 15.99C30.8701 15.4 30.8701 14.45 31.4601 13.87L36.0901 9.24003C36.6801 8.66003 37.6301 8.65003 38.2101 9.24003C38.8001 9.83003 38.8001 10.78 38.2101 11.36L33.5801 15.99C33.2901 16.28 32.9001 16.43 32.5201 16.43Z" fill="url(#phone1_linear)"></path><path d="M27.29 14.37C26.46 14.37 25.79 13.7 25.79 12.87V6.27002C25.79 5.44002 26.46 4.77002 27.29 4.77002C28.12 4.77002 28.79 5.44002 28.79 6.27002V12.87C28.79 13.7 28.12 14.37 27.29 14.37Z" fill="url(#phone2_linear)"></path><path d="M41.1703 21.6599H34.5703C33.7403 21.6599 33.0703 20.9899 33.0703 20.1599C33.0703 19.3299 33.7403 18.6599 34.5703 18.6599H41.1703C42.0003 18.6599 42.6703 19.3299 42.6703 20.1599C42.6703 20.9899 42.0003 21.6599 41.1703 21.6599Z" fill="url(#phone3_linear)"></path><defs><linearGradient id="phone0_linear" x1="24.0033" y1="5.99113" x2="24.0033" y2="42.0171" gradientUnits="userSpaceOnUse"><stop stop-color="#007BD1"></stop><stop offset="1" stop-color="#19AAF8"></stop></linearGradient><linearGradient id="phone1_linear" x1="31.24" y1="15.9531" x2="38.2402" y2="9.45293" gradientUnits="userSpaceOnUse"><stop stop-color="#C6E103"></stop><stop offset="0.7619" stop-color="#1ABE51"></stop></linearGradient><linearGradient id="phone2_linear" x1="27.2888" y1="14.4729" x2="27.2888" y2="5.47282" gradientUnits="userSpaceOnUse"><stop stop-color="#C6E103"></stop><stop offset="1" stop-color="#1ABE51"></stop></linearGradient><linearGradient id="phone3_linear" x1="33.2592" y1="20.159" x2="42.7589" y2="20.159" gradientUnits="userSpaceOnUse"><stop stop-color="#C6E103"></stop><stop offset="0.7619" stop-color="#1ABE51"></stop></linearGradient></defs></svg>