<svg width="32" height="32" viewBox="0 0 32 32" fill="none" xmlns="http://www.w3.org/2000/svg"><path d="M32 0H0V32H32V0Z" fill="white"></path><path d="M25.3333 18.2066L22.1333 20.9533H9.33325V7.20662C9.33325 6.65995 9.68664 6.28662 10.22 6.28662H24.4399C24.9733 6.28662 25.3267 6.65329 25.3267 7.20662V18.2066H25.3333Z" fill="url(#paint0_linear)"></path><path fill-rule="evenodd" clip-rule="evenodd" d="M24.5133 17.5266L20.96 21.0066L14.8134 20.4L18.2533 19.24C18.82 19.02 19.1 18.52 18.9267 17.9666C18.76 17.4133 18.1934 17.14 17.6267 17.2466C17.6267 17.2466 11.6534 18.5733 11.4801 18.5733C10.8601 18.5733 10.24 18.8466 9.84668 19.18L4.18669 24.5266C4.14002 24.5533 4.09338 24.5866 4.04671 24.6133C4.04671 24.6266 4.05339 24.64 4.05339 24.6533L3.99341 24.7066C4.01341 24.6933 4.03339 24.6866 4.05339 24.6733C4.30005 26.2466 5.69338 29.2066 9.38005 28.9466C9.47338 28.8133 9.54 28.6666 9.58667 28.5133L13.18 23.9866H20.96C21.4134 23.9866 21.8601 23.7666 22.1467 23.4333L26.94 17.58C26.3734 16.7533 25.1933 16.7533 24.5133 17.5266Z" fill="#FFCF92"></path><path d="M20.0001 6.28662H14.6667V11.62H20.0001V6.28662Z" fill="url(#paint1_linear)"></path><path d="M25.3333 5.84655L26.8666 2.29321L28.54 3.47988L25.7533 6.12655L25.3333 5.84655Z" fill="url(#paint2_linear)"></path><path d="M26.4468 6.68001L28.8868 5.84668L29.0934 7.24001L26.5134 7.30668L26.4468 6.68001Z" fill="url(#paint3_linear)"></path><defs><linearGradient id="paint0_linear" x1="17.3317" y1="6.28995" x2="17.3317" y2="20.9566" gradientUnits="userSpaceOnUse"><stop stop-color="#007BD1"></stop><stop offset="1" stop-color="#19AAF8"></stop></linearGradient><linearGradient id="paint1_linear" x1="17.3319" y1="6.28995" x2="17.3319" y2="11.6233" gradientUnits="userSpaceOnUse"><stop stop-color="#00F7FF"></stop><stop offset="1" stop-color="#2BA6FA"></stop></linearGradient><linearGradient id="paint2_linear" x1="26.9356" y1="2.28981" x2="26.9356" y2="6.12355" gradientUnits="userSpaceOnUse"><stop stop-color="#C6E103"></stop><stop offset="0.7619" stop-color="#1ABE51"></stop></linearGradient><linearGradient id="paint3_linear" x1="27.7716" y1="5.84501" x2="27.7716" y2="7.30875" gradientUnits="userSpaceOnUse"><stop stop-color="#C6E103"></stop><stop offset="0.7619" stop-color="#1ABE51"></stop></linearGradient></defs></svg>