<svg width="48" height="48" viewBox="0 0 48 48" fill="none" xmlns="http://www.w3.org/2000/svg"><path d="M48 0H0V48H48V0Z" fill="white"></path><path d="M34.2899 3.21997H13.7199C12.2599 3.21997 11.1499 4.32997 11.1499 5.78997V41.79C11.1499 43.25 12.2599 44.36 13.7199 44.36H34.2899C35.7499 44.36 36.8599 43.25 36.8599 41.79V5.78997C36.8599 4.32997 35.7499 3.21997 34.2899 3.21997Z" fill="url(#recharge0_linear)"></path><path d="M34.4 11.79H13.6C12.13 11.79 11 12.68 11 13.85V42.73C11 43.9 12.13 44.79 13.6 44.79H34.4C35.87 44.79 37 43.9 37 42.73V13.85C37 12.68 35.88 11.79 34.4 11.79Z" fill="#A3DEFF"></path><path d="M36.8599 9.21997H11.1499V37.51H36.8599V9.21997Z" fill="url(#recharge1_linear)"></path><path d="M21.2901 16.0801C22.0501 16.0801 22.6301 16.2801 23.0301 16.6801C23.2601 16.9101 23.4401 17.2301 23.5601 17.6501C23.6901 18.0501 23.7601 18.6201 23.7601 19.3501V20.6301H29.8801V22.3701H23.7601V26.8701C23.7601 27.3001 23.8201 27.6001 23.9401 27.7801C24.0601 27.9601 24.3101 28.0501 24.6901 28.0501C25.1001 28.0501 25.5101 27.9501 25.9001 27.7601C26.3001 27.5501 26.6301 27.2901 26.8901 26.9701C27.1601 26.6401 27.2901 26.2901 27.2901 25.9301C27.2901 25.7501 27.2201 25.6001 27.0901 25.4701C26.9701 25.3501 26.7501 25.2901 26.4501 25.2901C26.1801 25.2901 25.9401 25.3101 25.7401 25.3601L25.4801 23.7301C25.9301 23.6201 26.4401 23.5701 27.0001 23.5701C27.7001 23.5701 28.2601 23.7301 28.6801 24.0601C29.1101 24.3901 29.3201 24.9001 29.3201 25.6001C29.3201 26.2301 29.1701 26.8101 28.8801 27.3201C28.5901 27.8201 28.2001 28.2601 27.7301 28.6401C27.2501 29.0101 26.7301 29.2901 26.1601 29.4801C25.5901 29.6801 25.0201 29.7701 24.4601 29.7701C23.9701 29.7701 23.5601 29.7201 23.2301 29.6101C22.9001 29.4901 22.6301 29.3401 22.4301 29.1501C22.2401 28.9501 22.0701 28.7101 21.9401 28.4201C21.8101 28.1201 21.7401 27.6001 21.7401 26.8701V22.3701H20.1101V20.6301H21.7401V19.4401C21.7401 18.9201 21.6701 18.5201 21.5401 18.2501C21.4101 17.9701 21.1001 17.8301 20.6301 17.8301C20.4301 17.8301 20.2401 17.8501 20.0401 17.9001C19.8401 17.9501 19.6601 18.0101 19.4901 18.0801L18.8701 16.5601C19.3101 16.3901 19.7101 16.2701 20.0801 16.1901C20.4301 16.1201 20.8401 16.0801 21.2901 16.0801Z" fill="white"></path><path d="M24 42.79C25.1 42.79 26 41.89 26 40.79C26 39.69 25.1 38.79 24 38.79C22.9 38.79 22 39.69 22 40.79C22 41.89 22.9 42.79 24 42.79Z" fill="url(#recharge2_linear)"></path><defs><linearGradient id="recharge0_linear" x1="11.1466" y1="23.7896" x2="36.8606" y2="23.7896" gradientUnits="userSpaceOnUse"><stop stop-color="#00F7FF"></stop><stop offset="1" stop-color="#2BA6FA"></stop></linearGradient><linearGradient id="recharge1_linear" x1="24.0036" y1="9.21857" x2="24.0036" y2="37.5036" gradientUnits="userSpaceOnUse"><stop stop-color="#007BD1"></stop><stop offset="1" stop-color="#19AAF8"></stop></linearGradient><linearGradient id="recharge2_linear" x1="24.0037" y1="38.7896" x2="24.0037" y2="42.7896" gradientUnits="userSpaceOnUse"><stop stop-color="#007BD1"></stop><stop offset="1" stop-color="#19AAF8"></stop></linearGradient></defs></svg>